C:\GBW_MyPrograms\KinderuniversiteitApp\Resultaten\Ellis\Olaf\Olaf_v1.mot
version=1
nRows=19
nColumns=29
inDegrees=yes
endheader
                time	         pelvis_tilt	           pelvis_tx	           pelvis_ty	       hip_flexion_l	       hip_flexion_r	        knee_angle_l	        knee_angle_r	       ankle_angle_l	       ankle_angle_r	    lumbar_extension	hamstrings_r/activation	bifemsh_r/activation	glut_max_r/activation	iliopsoas_r/activation	rect_fem_r/activation	  vasti_r/activation	gastroc_r/activation	 soleus_r/activation	tib_ant_r/activation	hamstrings_l/activation	bifemsh_l/activation	glut_max_l/activation	iliopsoas_l/activation	rect_fem_l/activation	  vasti_l/activation	gastroc_l/activation	 soleus_l/activation	tib_ant_l/activation	
          1.06257332	         -9.19093677	          1.32015761	          0.89889356	         32.56503848	          6.89686478	        -19.44399390	        -19.80723172	          1.81919914	         15.30990917	         -7.46866643	          0.98544736	          0.98460599	          0.11600979	          0.98299511	          0.05235244	          0.05062599	          0.98637758	          0.98565974	          0.08486450	          0.93632579	          0.10777343	          0.98238429	          0.12276762	          0.20667452	          0.98340040	          0.06068651	          0.10577497	          0.70675781	
          1.06965714	         -9.13700112	          1.33023761	          0.89866760	         31.21620209	          7.27685400	        -15.71795674	        -21.00130242	         -0.01483931	         15.89088938	         -7.22029048	          0.98494277	          0.98466051	          0.10517284	          0.98410456	          0.05254568	          0.05064526	          0.98664953	          0.98611804	          0.07722350	          0.95268780	          0.10759711	          0.98368878	          0.11137112	          0.18702129	          0.98137494	          0.05610755	          0.09626413	          0.79924843	
          1.07674096	         -9.02962626	          1.34049604	          0.90054162	         29.58316259	          7.89113795	        -12.96246586	        -22.26816086	         -2.17092285	         16.39795912	         -7.00221013	          0.98379882	          0.98468838	          0.09547943	          0.98482250	          0.05244495	          0.05063979	          0.98614175	          0.98583989	          0.07008650	          0.96369093	          0.10770602	          0.98447069	          0.10120363	          0.16946310	          0.98040901	          0.05215005	          0.08773420	          0.86233183	
          1.08382479	         -8.87684262	          1.35087879	          0.90419645	         27.76042290	          8.42393689	        -11.23522419	        -23.43171959	         -3.88503848	         16.74527676	         -6.81378434	          0.94259113	          0.98489186	          0.08684322	          0.98533815	          0.05262478	          0.05064852	          0.98723071	          0.98703210	          0.06310554	          0.97082911	          0.10677919	          0.98475549	          0.09212280	          0.15394739	          0.98091062	          0.05691616	          0.08057947	          0.84101333	
          1.09090861	         -8.69745158	          1.36134730	          0.90281869	         26.04487567	          8.29225621	         -8.87831667	        -25.12622287	         -4.17514485	         16.85970530	         -6.64924993	          0.84442383	          0.98520382	          0.07917565	          0.98512665	          0.05224273	          0.05068842	          0.98541846	          0.98524789	          0.05747887	          0.97590505	          0.10790486	          0.98509816	          0.08403731	          0.13997645	          0.98111627	          0.05337459	          0.07383677	          0.89067394	
          1.09799243	         -8.45751964	          1.37172603	          0.89897882	         25.13838594	          8.03414743	         -7.73198008	        -27.68442802	         -3.98309290	         16.79486134	         -6.55441718	          0.75482409	          0.98349374	          0.07232807	          0.98586698	          0.05258735	          0.05070456	          0.98456199	          0.98572570	          0.05460655	          0.97899687	          0.10346735	          0.98512883	          0.07700919	          0.12765404	          0.97537733	          0.05316129	          0.06795342	          0.92243363	
          1.10507625	         -8.18881142	          1.38168976	          0.89746379	         24.08323418	          8.19539470	         -7.08639438	        -30.15149901	         -3.10499011	         16.30071007	         -6.57202413	          0.67468815	          0.98247741	          0.06622726	          0.98670098	          0.05221527	          0.05069266	          0.98724606	          0.98776145	          0.05098182	          0.98327889	          0.10180060	          0.98802784	          0.07071037	          0.11683545	          0.97958754	          0.05312671	          0.06272118	          0.94360065	
          1.11216007	         -7.90330196	          1.39106097	          0.89631183	         23.28641716	          8.50616378	         -6.77105492	        -32.54585011	         -2.00900448	         15.27144607	         -6.70323569	          0.60324897	          0.98290950	          0.06099426	          0.98724342	          0.07079372	          0.05047184	          0.99120964	          0.99233735	          0.05043427	          0.98362828	          0.10325800	          0.98537132	          0.06531643	          0.10786468	          0.98222240	          0.05257937	          0.05796616	          0.95788344	
          1.11924390	         -7.59611721	          1.39984783	          0.89613372	         22.68897113	          8.94516175	         -6.82690924	        -34.82698565	         -0.98497426	         13.68319589	         -6.94071136	          0.53960268	          0.98398432	          0.05638983	          0.98727983	          0.36649184	          0.05019184	          0.99129530	          0.99275666	          0.05010725	          0.98498003	          0.10585535	          0.98616251	          0.06088420	          0.09926721	          0.98349418	          0.05274706	          0.05428761	          0.96720556	
          1.12632772	         -7.26505476	          1.40816859	          0.89716112	         21.90225334	          8.77729821	         -6.93817920	        -38.03005534	          0.03553061	         11.92634553	         -7.31200923	          0.48291615	          0.97697261	          0.05293490	          0.98702628	          0.56761570	          0.05060810	          0.98353514	          0.97390213	          0.06010083	          0.98555022	          0.10904546	          0.98613554	          0.05745798	          0.09167299	          0.98384987	          0.05288969	          0.05219821	          0.97320885	
          1.13341154	         -6.87076205	          1.41618280	          0.89885881	         21.18736684	          9.10628563	         -7.27050211	        -40.72196556	          0.89978968	          9.40818923	         -7.80613852	          0.43245830	          0.95748508	          0.05136364	          0.98681055	          0.70340853	          0.05097072	          0.98301706	          0.97823774	          0.05033374	          0.98530492	          0.11164757	          0.98556789	          0.05535674	          0.08544488	          0.98373041	          0.05311663	          0.05211180	          0.97700527	
          1.14049536	         -6.42095588	          1.42400604	          0.90090702	         20.38623583	          9.57375751	         -7.58109833	        -43.27085978	          1.65984621	          6.30862757	         -8.40105823	          0.38754671	          0.93891773	          0.05135349	          0.98663781	          0.79511389	          0.05334182	          0.98152380	          0.98054677	          0.05003259	          0.98495373	          0.11568787	          0.98491780	          0.05443493	          0.08029580	          0.98301051	          0.05335613	          0.05232041	          0.97946291	
          1.14757918	         -5.92468712	          1.43171416	          0.90318917	         19.47494194	         10.08145173	         -7.81453846	        -45.66043721	          2.33120283	          2.73265748	         -9.07396769	          0.34756664	          0.88435154	          0.05137584	          0.98652536	          0.85783390	          0.14337531	          0.96220538	          0.94336504	          0.05004314	          0.98450543	          0.12184511	          0.98421757	          0.05433526	          0.07621451	          0.98165591	          0.05351669	          0.05234961	          0.98109537	
          1.15466301	         -5.41400334	          1.43936068	          0.90556781	         18.47849748	         10.60758037	         -7.95160269	        -47.82625677	          2.92981107	         -1.10768375	         -9.77704154	          0.31196523	          0.82915716	          0.05139486	          0.98645496	          0.89949510	          0.39358202	          0.89756212	          0.84569984	          0.20099146	          0.98392665	          0.13032587	          0.98341042	          0.05445434	          0.07296591	          0.97801305	          0.05361473	          0.05232152	          0.98220463	
          1.16174683	         -4.90459936	          1.44699633	          0.90795505	         17.41278797	         11.11262779	         -7.98715834	        -49.72100579	          3.46967114	         -4.54522372	        -10.48312884	          0.28024397	          0.78277337	          0.05140228	          0.98641422	          0.92676192	          0.37825673	          0.84650093	          0.75871362	          0.40547694	          0.98345720	          0.14142658	          0.98189103	          0.05464382	          0.07039237	          0.96972568	          0.05367714	          0.05227123	          0.98297422	
          1.16883065	         -4.39627512	          1.45464166	          0.91030952	         16.28121020	         11.57403342	         -7.92411120	        -51.38346415	          3.95753018	         -6.91323855	        -11.18956295	          0.25196150	          0.75194705	          0.05141398	          0.98638595	          0.94631348	          0.34269238	          0.79387122	          0.68091469	          0.58950897	          0.98217150	          0.15622426	          0.98165881	          0.05484626	          0.06834458	          0.93358871	          0.05370202	          0.05221671	          0.98351380	
          1.17591447	         -3.89017550	          1.46229192	          0.91260081	         15.09652685	         11.99978335	         -7.78692819	        -52.86211802	          4.40918609	         -8.22251737	        -11.89555220	          0.22674187	          0.74077747	          0.05141613	          0.98636353	          0.95942771	          0.30900640	          0.74809332	          0.61153957	          0.71461093	          0.98313727	          0.18369988	          0.98362651	          0.05494867	          0.06680550	          0.85330628	          0.05370621	          0.05215501	          0.98389447	
          1.18299829	         -3.41179266	          1.46992971	          0.91476643	         13.90634896	         12.43436246	         -7.60082514	        -54.18648923	          4.84359311	         -8.96571292	        -12.57257307	          0.20428010	          0.75158917	          0.05142107	          0.98633622	          0.96815562	          0.27632477	          0.71257355	          0.54975405	          0.79856575	          0.98373793	          0.24354497	          0.97949172	          0.05490730	          0.06559383	          0.76954906	          0.05368210	          0.05209601	          0.98416232	
          1.19008212	         -2.98336783	          1.47754335	          0.91673123	         12.75764495	         12.91395314	         -7.38598744	        -55.37873710	          5.26775488	         -9.46615543	        -13.19534778	          0.18431769	          0.78183551	          0.05142358	          0.98630487	          0.97391618	          0.24874665	          0.68947692	          0.49476400	          0.85394871	          0.98386686	          0.24994257	          0.97331644	          0.05878169	          0.06467904	          0.69206296	          0.05364580	          0.05203990	          0.98437000	
